<svg xmlns="http://www.w3.org/2000/svg" viewBox="0 0 24 24"><path fill="#FFFFFF" d="M12 2C6.477 2 2 6.477 2 12c0 1.89.525 3.66 1.438 5.168L2.05 22l4.922-1.29c1.454.796 3.116 1.29 4.878 1.29 5.523 0 10-4.477 10-10S17.523 2 12 2zm0 18c-1.543 0-2.98-.434-4.205-1.184l-.296-.177-3.069.804.818-2.985-.188-.302C4.373 14.956 4 13.531 4 12c0-4.411 3.589-8 8-8s8 3.589 8 8-3.589 8-8 8zm4.586-5.168c-.24-.12-1.425-.704-1.644-.784-.22-.08-.38-.12-.54.12-.16.237-.62.784-.76.944-.14.16-.28.18-.52.06-.24-.12-1.017-.374-1.935-1.192-.716-.64-1.2-1.432-1.34-1.672-.14-.24-.015-.37.106-.49.108-.107.24-.279.36-.419.12-.14.16-.24.24-.4.08-.16.04-.3-.02-.42-.06-.12-.54-1.3-.74-1.78-.195-.466-.39-.4-.54-.407-.14-.006-.3-.006-.46-.006-.16 0-.42.06-.64.3-.22.24-.84.82-.84 2 0 1.18.86 2.32.98 2.48.12.16 1.7 2.6 4.12 3.64.58.25 1.03.4 1.38.51.58.184.91.16 1.25.096.38-.056 1.17-.48 1.34-.94.17-.46.17-.86.12-.94-.06-.08-.22-.13-.46-.23z"/></svg>